<?xml version="1.0" encoding="UTF-8" standalone="no"?>
<svg
   xmlns:dc="http://purl.org/dc/elements/1.1/"
   xmlns:cc="http://creativecommons.org/ns#"
   xmlns:rdf="http://www.w3.org/1999/02/22-rdf-syntax-ns#"
   xmlns:svg="http://www.w3.org/2000/svg"
   xmlns="http://www.w3.org/2000/svg"
   xmlns:sodipodi="http://sodipodi.sourceforge.net/DTD/sodipodi-0.dtd"
   xmlns:inkscape="http://www.inkscape.org/namespaces/inkscape"
   enable-background="new 0 0 24 24"
   height="18px"
   viewBox="0 0 24 24"
   width="18px"
   fill="#000000"
   version="1.1"
   id="svg10"
   sodipodi:docname="access_time_filled_black_18dp.svg"
   inkscape:version="1.0.1 (3bc2e813f5, 2020-09-07)">
  <metadata
     id="metadata16">
    <rdf:RDF>
      <cc:Work
         rdf:about="">
        <dc:format>image/svg+xml</dc:format>
        <dc:type
           rdf:resource="http://purl.org/dc/dcmitype/StillImage" />
        <dc:title></dc:title>
      </cc:Work>
    </rdf:RDF>
  </metadata>
  <defs
     id="defs14" />
  <sodipodi:namedview
     pagecolor="#ffffff"
     bordercolor="#666666"
     borderopacity="1"
     objecttolerance="10"
     gridtolerance="10"
     guidetolerance="10"
     inkscape:pageopacity="0"
     inkscape:pageshadow="2"
     inkscape:window-width="1920"
     inkscape:window-height="1008"
     id="namedview12"
     showgrid="false"
     inkscape:zoom="39.722222"
     inkscape:cx="9"
     inkscape:cy="9"
     inkscape:window-x="0"
     inkscape:window-y="40"
     inkscape:window-maximized="1"
     inkscape:current-layer="svg10" />
  <g
     id="g4">
    <path
       d="M0,0h24v24H0V0z"
       fill="none"
       id="path2" />
  </g>
  <g
     id="g8"
     style="fill:#865858;fill-opacity:1">
    <path
       d="M11.99,2C6.47,2,2,6.48,2,12s4.47,10,9.99,10C17.52,22,22,17.52,22,12S17.52,2,11.99,2z M16,16 c-0.39,0.39-1.02,0.39-1.41,0l-3.29-3.29C11.11,12.52,11,12.27,11,12V8c0-0.55,0.45-1,1-1h0c0.55,0,1,0.45,1,1v3.59l3,3 C16.39,14.98,16.39,15.61,16,16z"
       id="path6"
       style="fill:#865858;fill-opacity:1" />
  </g>
</svg>
