<?xml version="1.0" encoding="UTF-8" standalone="no"?>
<svg
   xmlns:dc="http://purl.org/dc/elements/1.1/"
   xmlns:cc="http://creativecommons.org/ns#"
   xmlns:rdf="http://www.w3.org/1999/02/22-rdf-syntax-ns#"
   xmlns:svg="http://www.w3.org/2000/svg"
   xmlns="http://www.w3.org/2000/svg"
   xmlns:sodipodi="http://sodipodi.sourceforge.net/DTD/sodipodi-0.dtd"
   xmlns:inkscape="http://www.inkscape.org/namespaces/inkscape"
   height="18px"
   viewBox="0 0 24 24"
   width="18px"
   fill="#000000"
   version="1.1"
   id="svg6"
   sodipodi:docname="grid_on_black_18dp.svg"
   inkscape:version="1.0.1 (3bc2e813f5, 2020-09-07)">
  <metadata
     id="metadata12">
    <rdf:RDF>
      <cc:Work
         rdf:about="">
        <dc:format>image/svg+xml</dc:format>
        <dc:type
           rdf:resource="http://purl.org/dc/dcmitype/StillImage" />
        <dc:title></dc:title>
      </cc:Work>
    </rdf:RDF>
  </metadata>
  <defs
     id="defs10" />
  <sodipodi:namedview
     pagecolor="#ffffff"
     bordercolor="#666666"
     borderopacity="1"
     objecttolerance="10"
     gridtolerance="10"
     guidetolerance="10"
     inkscape:pageopacity="0"
     inkscape:pageshadow="2"
     inkscape:window-width="1920"
     inkscape:window-height="1008"
     id="namedview8"
     showgrid="false"
     inkscape:zoom="28.087853"
     inkscape:cx="10.088424"
     inkscape:cy="9.7090519"
     inkscape:window-x="0"
     inkscape:window-y="40"
     inkscape:window-maximized="1"
     inkscape:current-layer="svg6" />
  <path
     d="M0 0h24v24H0V0z"
     fill="none"
     id="path2" />
  <path
     d="M20 2H4c-1.1 0-2 .9-2 2v16c0 1.1.9 2 2 2h16c1.1 0 2-.9 2-2V4c0-1.1-.9-2-2-2zM8 20H5c-.55 0-1-.45-1-1v-3h4v4zm0-6H4v-4h4v4zm0-6H4V5c0-.55.45-1 1-1h3v4zm6 12h-4v-4h4v4zm0-6h-4v-4h4v4zm0-6h-4V4h4v4zm5 12h-3v-4h4v3c0 .55-.45 1-1 1zm1-6h-4v-4h4v4zm0-6h-4V4h3c.55 0 1 .45 1 1v3z"
     id="path4"
     style="fill-opacity:0.6156863;fill:#7e8a97" />
</svg>
